<svg width="219" height="219" viewBox="0 0 219 219" fill="none" xmlns="http://www.w3.org/2000/svg">
<circle cx="109.335" cy="109.355" r="86.9647" transform="rotate(0.641465 109.335 109.355)" fill="#FF4444" fill-opacity="0.6"/>
<circle cx="109.525" cy="109.546" r="107.66" transform="rotate(0.641465 109.525 109.546)" fill="#C41313" fill-opacity="0.4"/>
<circle cx="109.957" cy="109.977" r="66.9561" fill="#E71C1C"/>
<path d="M146.445 143.021H120.688C119.878 141.482 119.041 139.849 118.178 138.121C117.314 136.393 116.477 134.598 115.667 132.735C114.857 130.872 114.101 128.942 113.399 126.944C112.697 124.946 112.103 122.894 111.617 120.788H110.199V143.021H79.0973V125.445L84.281 124.433V99.4052L79.0973 98.3928V80.8168H114.371C119.041 80.8168 123.078 81.0328 126.48 81.4648C129.881 81.8968 132.77 82.5177 135.146 83.3277C137.522 84.1106 139.439 85.0826 140.897 86.2435C142.382 87.3774 143.529 88.6734 144.339 90.1313C145.176 91.5622 145.729 93.1416 145.999 94.8695C146.296 96.5704 146.445 98.3793 146.445 100.296C146.445 102.24 146.256 104.008 145.878 105.601C145.527 107.167 144.892 108.612 143.974 109.935C143.057 111.258 141.801 112.472 140.208 113.579C138.615 114.659 136.59 115.685 134.134 116.657C134.647 117.737 135.416 119.006 136.442 120.464C137.468 121.895 138.575 123.366 139.763 124.878C140.951 126.363 142.139 127.821 143.327 129.252C144.541 130.656 145.581 131.857 146.445 132.856V143.021ZM110.199 108.841C111.765 108.841 113.183 108.774 114.452 108.639C115.748 108.504 116.841 108.193 117.732 107.707C118.65 107.221 119.352 106.506 119.838 105.561C120.324 104.616 120.567 103.347 120.567 101.754C120.567 100.188 120.324 98.9463 119.838 98.0283C119.352 97.0834 118.65 96.3544 117.732 95.8415C116.841 95.3285 115.748 94.991 114.452 94.829C113.183 94.667 111.765 94.586 110.199 94.586V108.841Z" fill="white"/>
<path d="M87.9258 100.941L131.123 72.3954L114.703 93.3626L131.123 100.941L96.5148 127.466L112.43 100.941H87.9258Z" fill="#E71C1C" stroke="#FF0000" stroke-width="0.505233"/>
</svg>
