<svg width="179" height="140" viewBox="0 0 179 140" fill="none" xmlns="http://www.w3.org/2000/svg">
<g clip-path="url(#clip0_3_79)">
<path d="M162.789 127.769C159.36 131.427 155.432 134.586 151.12 137.153C151.021 137.213 150.92 137.27 150.819 137.329L143.838 131.17C143.911 131.102 143.992 131.026 144.08 130.942C149.282 126.018 175.106 91.5927 176.827 83.2096C176.708 83.908 178.38 111.297 162.789 127.769Z" fill="#FF1212"/>
<path d="M152.467 138.341C152.335 138.373 152.201 138.402 152.066 138.429L146.828 133.808C146.931 133.772 147.05 133.73 147.187 133.683C149.434 132.89 156.128 130.495 162.788 127.768C169.946 124.836 177.068 121.524 178.6 119.402C178.272 119.895 168.149 134.846 152.467 138.341Z" fill="#FF1212"/>
<path d="M162.692 36.6551H161.946V16.2872C161.946 14.7391 161.64 13.2062 161.046 11.776C160.452 10.3457 159.58 9.04618 158.482 7.95152C157.384 6.85687 156.08 5.98854 154.646 5.39612C153.211 4.80369 151.673 4.49878 150.12 4.49878H106.829C105.276 4.49878 103.738 4.80369 102.303 5.39611C100.868 5.98852 99.5647 6.85685 98.4665 7.9515C97.3684 9.04615 96.4972 10.3457 95.9029 11.7759C95.3086 13.2062 95.0027 14.7391 95.0027 16.2871V128.027C95.0027 129.575 95.3086 131.108 95.9029 132.538C96.4972 133.969 97.3683 135.268 98.4665 136.363C99.5647 137.457 100.868 138.326 102.303 138.918C103.738 139.511 105.276 139.815 106.829 139.815H150.12C151.673 139.815 153.211 139.511 154.645 138.918C156.08 138.326 157.384 137.457 158.482 136.363C159.58 135.268 160.451 133.969 161.046 132.538C161.64 131.108 161.946 129.575 161.946 128.027V51.1533H162.692V36.6551Z" fill="black"/>
<path d="M159.429 16.3682V127.945C159.429 129.102 159.2 130.246 158.756 131.314C158.312 132.382 157.662 133.353 156.841 134.17C156.021 134.988 155.047 135.636 153.976 136.078C152.904 136.52 151.755 136.747 150.596 136.747H107.096C105.937 136.747 104.788 136.52 103.717 136.077C102.646 135.635 101.672 134.987 100.852 134.169C100.032 133.352 99.3821 132.382 98.9383 131.314C98.4946 130.246 98.2663 129.101 98.2664 127.945V16.3682C98.2663 15.2123 98.4946 14.0677 98.9383 12.9998C99.3821 11.9319 100.032 10.9616 100.852 10.1443C101.672 9.32694 102.646 8.67863 103.717 8.23633C104.788 7.79404 105.937 7.56644 107.096 7.56653H112.375C112.116 8.20163 112.017 8.89047 112.088 9.57246C112.159 10.2545 112.396 10.9087 112.78 11.4777C113.164 12.0466 113.682 12.5129 114.289 12.8354C114.896 13.1579 115.573 13.3268 116.261 13.3273H141.061C141.749 13.328 142.427 13.1598 143.035 12.8375C143.642 12.5153 144.161 12.049 144.545 11.4797C144.929 10.9104 145.167 10.2556 145.237 9.5732C145.307 8.89075 145.207 8.20159 144.947 7.56653H150.596C151.755 7.56611 152.904 7.79346 153.976 8.2356C155.047 8.67773 156.021 9.32599 156.841 10.1433C157.662 10.9607 158.312 11.9311 158.756 12.9992C159.2 14.0673 159.429 15.212 159.429 16.3682Z" fill="white"/>
<path d="M145.898 74.3497H107.663C106.993 74.3489 106.351 74.0834 105.878 73.6114C105.404 73.1393 105.138 72.4994 105.137 71.8318V70.5785C105.138 69.911 105.404 69.271 105.878 68.799C106.351 68.3269 106.993 68.0614 107.663 68.0607H145.898C146.567 68.0614 147.209 68.3269 147.683 68.799C148.157 69.271 148.423 69.911 148.424 70.5785V71.8318C148.423 72.4994 148.157 73.1393 147.683 73.6114C147.209 74.0834 146.567 74.3489 145.898 74.3497Z" fill="#F0F0F0"/>
<path d="M145.898 85.1531H107.663C106.993 85.1524 106.351 84.8869 105.878 84.4148C105.404 83.9428 105.138 83.3028 105.137 82.6353V81.382C105.138 80.7145 105.404 80.0745 105.878 79.6024C106.351 79.1304 106.993 78.8649 107.663 78.8641H145.898C146.567 78.8649 147.209 79.1304 147.683 79.6024C148.157 80.0745 148.423 80.7145 148.424 81.382V82.6353C148.423 83.3028 148.157 83.9428 147.683 84.4148C147.209 84.8869 146.567 85.1524 145.898 85.1531Z" fill="#F0F0F0"/>
<path d="M147.81 71.9335H109.576C108.872 71.9327 108.198 71.6539 107.701 71.1583C107.204 70.6626 106.924 69.9907 106.923 69.2897V68.0365C106.924 67.3355 107.204 66.6635 107.701 66.1679C108.198 65.6723 108.872 65.3935 109.576 65.3927H147.81C148.513 65.3935 149.187 65.6723 149.685 66.1679C150.182 66.6635 150.462 67.3355 150.462 68.0365V69.2897C150.462 69.9907 150.182 70.6626 149.685 71.1583C149.187 71.6539 148.513 71.9327 147.81 71.9335ZM109.576 65.8963C109.006 65.8969 108.461 66.1226 108.058 66.5238C107.656 66.925 107.429 67.469 107.429 68.0365V69.2897C107.429 69.8571 107.656 70.4011 108.058 70.8024C108.461 71.2036 109.006 71.4293 109.576 71.4299H147.81C148.379 71.4293 148.925 71.2036 149.328 70.8024C149.73 70.4011 149.957 69.8571 149.957 69.2897V68.0365C149.957 67.469 149.73 66.925 149.328 66.5238C148.925 66.1226 148.379 65.8969 147.81 65.8963H109.576Z" fill="#3F3D56"/>
<path d="M147.81 82.737H109.576C108.872 82.7362 108.198 82.4574 107.701 81.9617C107.204 81.4661 106.924 80.7941 106.923 80.0932V78.8399C106.924 78.139 107.204 77.467 107.701 76.9714C108.198 76.4758 108.872 76.197 109.576 76.1962H147.81C148.513 76.197 149.187 76.4758 149.685 76.9714C150.182 77.467 150.462 78.139 150.462 78.8399V80.0932C150.462 80.7941 150.182 81.4661 149.685 81.9617C149.187 82.4574 148.513 82.7362 147.81 82.737ZM109.576 76.6997C109.006 76.7004 108.461 76.9261 108.058 77.3273C107.656 77.7285 107.429 78.2725 107.429 78.8399V80.0932C107.429 80.6606 107.656 81.2046 108.058 81.6058C108.461 82.0071 109.006 82.2327 109.576 82.2334H147.81C148.379 82.2327 148.925 82.0071 149.328 81.6058C149.73 81.2046 149.957 80.6606 149.957 80.0932V78.8399C149.957 78.2725 149.73 77.7285 149.328 77.3273C148.925 76.9261 148.379 76.7004 147.81 76.6997H109.576Z" fill="#3F3D56"/>
<path d="M159.429 16.3682V40.6378C155.56 41.6523 151.509 41.7687 147.588 40.978C143.668 40.1873 139.981 38.5106 136.812 36.0768C133.643 33.643 131.077 30.517 129.31 26.9394C127.543 23.3618 126.623 19.4279 126.621 15.4403C126.621 14.7286 126.65 14.0242 126.707 13.3273H141.061C141.749 13.328 142.427 13.1598 143.035 12.8375C143.642 12.5153 144.161 12.049 144.545 11.4797C144.929 10.9104 145.167 10.2556 145.237 9.5732C145.307 8.89075 145.207 8.20159 144.947 7.56653H150.596C151.756 7.56611 152.904 7.79346 153.976 8.2356C155.047 8.67773 156.021 9.32599 156.841 10.1433C157.662 10.9607 158.312 11.9311 158.756 12.9992C159.2 14.0673 159.429 15.212 159.429 16.3682Z" fill="#FF0000"/>
<path d="M120.246 135.231C120.246 135.743 120.226 136.248 120.185 136.747H107.096C105.937 136.747 104.788 136.519 103.717 136.077C102.646 135.635 101.672 134.987 100.852 134.169C100.032 133.352 99.3821 132.382 98.9383 131.314C98.4946 130.246 98.2663 129.101 98.2664 127.945V116.011C101.01 115.655 103.798 115.886 106.445 116.689C109.092 117.492 111.536 118.848 113.616 120.667C115.696 122.486 117.363 124.725 118.506 127.237C119.649 129.748 120.242 132.474 120.246 135.231Z" fill="#F50000"/>
<path d="M14.681 114.29C15.0488 114.452 15.4657 114.461 15.8403 114.316C16.2149 114.171 16.5166 113.884 16.6793 113.518L28.4703 86.8808C28.7401 86.2712 28.8226 85.5956 28.7072 84.9393C28.5918 84.283 28.2838 83.6755 27.822 83.1937C27.3603 82.712 26.7656 82.3775 26.1132 82.2326C25.4607 82.0878 24.7798 82.139 24.1566 82.3799C23.4366 82.654 22.834 83.1683 22.4515 83.8353C22.3907 83.9408 22.3355 84.0495 22.2862 84.1608L10.4952 110.798C10.4149 110.98 10.3712 111.175 10.3666 111.374C10.3621 111.572 10.3967 111.769 10.4687 111.954C10.5406 112.139 10.6484 112.308 10.7859 112.452C10.9234 112.595 11.0879 112.71 11.27 112.79L14.681 114.29Z" fill="#F50000"/>
<path d="M27.9863 97.8167L16.3235 95.2332L19.2101 87.6212C19.7019 85.7607 20.8463 84.1375 22.4359 83.046C24.0254 81.9545 25.9547 81.4671 27.8739 81.672L27.9863 81.6844L27.9863 97.8167Z" fill="white"/>
<path d="M51.5434 114.671C51.2004 114.671 50.8648 114.571 50.5774 114.385C50.29 114.198 50.063 113.932 49.9238 113.62L38.1329 86.9823C37.7579 86.1348 37.723 85.1762 38.0354 84.3038C38.3479 83.4315 38.9838 82.7116 39.8125 82.2924C40.6412 81.8732 41.5995 81.7865 42.4903 82.0502C43.3812 82.3138 44.1368 82.9078 44.6017 83.7098C44.667 83.8231 44.7262 83.9397 44.7791 84.0592L56.5701 110.697C56.7594 111.124 56.7705 111.609 56.601 112.045C56.4314 112.481 56.0952 112.832 55.6661 113.021L52.1396 114.572L52.1378 114.568C51.9471 114.636 51.746 114.671 51.5434 114.671Z" fill="#F50000"/>
<path d="M35.2333 105.524C34.8315 105.525 34.4463 105.684 34.1622 105.967C33.878 106.25 33.7182 106.634 33.7178 107.035V138.008C33.7182 138.409 33.878 138.793 34.1622 139.076C34.4463 139.359 34.8315 139.519 35.2333 139.519H38.9615C39.3633 139.519 39.7486 139.359 40.0327 139.076C40.3168 138.793 40.4767 138.409 40.4771 138.008V107.035C40.4767 106.634 40.3168 106.25 40.0327 105.967C39.7486 105.684 39.3633 105.525 38.9615 105.524H35.2333Z" fill="#F50000"/>
<path d="M27.8596 105.524C27.4577 105.525 27.0725 105.684 26.7884 105.967C26.5043 106.25 26.3444 106.634 26.344 107.035V138.008C26.3444 138.409 26.5043 138.793 26.7884 139.076C27.0725 139.359 27.4577 139.519 27.8596 139.519H31.5878C31.9896 139.519 32.3749 139.359 32.659 139.076C32.9431 138.793 33.1029 138.409 33.1034 138.008V107.035C33.1029 106.634 32.9431 106.25 32.659 105.967C32.3749 105.684 31.9896 105.525 31.5878 105.524H27.8596Z" fill="#F50000"/>
<path d="M33.2989 73.0744C40.4136 73.0744 46.1812 67.3253 46.1812 60.2333C46.1812 53.1414 40.4136 47.3922 33.2989 47.3922C26.1841 47.3922 20.4165 53.1414 20.4165 60.2333C20.4165 67.3253 26.1841 73.0744 33.2989 73.0744Z" fill="#F50000"/>
<path d="M37.5861 65.6238C38.4211 65.6007 39.4604 65.5718 40.2611 64.9888C40.4995 64.8081 40.6954 64.5776 40.835 64.3135C40.9746 64.0493 41.0546 63.758 41.0694 63.4598C41.0839 63.2478 41.049 63.0355 40.9675 62.8392C40.8859 62.6429 40.76 62.4681 40.5995 62.3285C40.1813 61.9762 39.5706 61.8936 38.9126 62.0864L39.5944 57.1197L39.0939 57.0514L38.2923 62.8903L38.7103 62.6991C39.1949 62.4776 39.86 62.3648 40.2734 62.713C40.3749 62.804 40.4539 62.9172 40.5044 63.0436C40.5549 63.1701 40.5755 63.3064 40.5645 63.4421C40.5523 63.664 40.4922 63.8807 40.3884 64.0774C40.2846 64.2742 40.1395 64.4463 39.963 64.5821C39.34 65.0358 38.5116 65.0943 37.572 65.1205L37.5861 65.6238Z" fill="white"/>
<path d="M44.7907 57.548H42.0698V58.0516H44.7907V57.548Z" fill="white"/>
<path d="M36.2023 57.548H33.4814V58.0516H36.2023V57.548Z" fill="white"/>
<path d="M46.0637 114.828L41.4271 81.0886C41.3773 80.7268 41.1978 80.3952 40.9218 80.1552C40.6457 79.9151 40.2918 79.7829 39.9254 79.7829H36.4256C36.4402 79.6998 36.4478 79.6155 36.4483 79.5311V78.2722C36.4483 77.8715 36.2886 77.4873 36.0044 77.204C35.7202 76.9207 35.3347 76.7615 34.9327 76.7615H31.9016C31.4996 76.7615 31.1142 76.9207 30.8299 77.204C30.5457 77.4873 30.386 77.8715 30.386 78.2722V79.5311C30.3865 79.6155 30.3941 79.6998 30.4087 79.7829H26.9089C26.5426 79.7829 26.1886 79.9152 25.9126 80.1552C25.6365 80.3952 25.457 80.7268 25.4073 81.0886L20.7706 114.828C20.7412 115.042 20.7581 115.259 20.8201 115.466C20.8821 115.672 20.9878 115.864 21.1301 116.026C21.2723 116.189 21.4479 116.319 21.6448 116.408C21.8418 116.498 22.0557 116.544 22.2721 116.544H44.5622C44.7786 116.544 44.9925 116.498 45.1895 116.408C45.3865 116.319 45.562 116.189 45.7042 116.026C45.8465 115.864 45.9522 115.672 46.0142 115.466C46.0762 115.259 46.0931 115.042 46.0637 114.828Z" fill="white"/>
<path d="M38.8477 97.8167V81.6844L38.96 81.672C40.8816 81.4672 42.813 81.9563 44.4036 83.0504C45.9941 84.1445 47.1382 85.771 47.6279 87.6344L50.5104 95.2332L38.8477 97.8167Z" fill="white"/>
<path d="M32.6503 73.4751L23.7399 70.0277C22.2829 69.464 20.8177 68.9174 19.3684 68.3343C18.7475 68.1186 18.1757 67.7826 17.6857 67.3457C17.2591 66.8956 16.9684 66.3347 16.8468 65.7275C16.5377 64.4254 16.5936 63.0019 16.6157 61.6731C16.6328 60.2195 16.7528 58.7689 16.9748 57.3321C17.3639 54.6322 18.2777 52.0339 19.665 49.6828C22.1639 45.5959 26.4692 42.5211 31.4215 42.7664C33.7142 42.8801 36.0202 43.7001 37.7236 45.2627C37.9013 45.4743 38.1007 45.6669 38.3185 45.8374C38.4699 45.894 38.6346 45.905 38.7923 45.8691C39.0001 45.8557 39.2082 45.8456 39.4164 45.8385C40.1389 45.8082 40.8626 45.8384 41.58 45.929C42.8873 46.0698 44.1264 46.5826 45.1493 47.4063C46.0006 48.1363 46.6932 49.1667 46.7645 50.3119C46.7989 50.8376 46.7117 51.3641 46.5096 51.8509C46.3075 52.3377 45.996 52.7717 45.5989 53.1195C44.5359 54.0125 43.0192 53.6986 41.744 53.6313L37.0726 53.3846L34.7057 53.2596C34.2184 53.2339 34.2198 53.9893 34.7057 54.0149L40.9966 54.3472C42.0075 54.4005 43.0494 54.5314 44.0612 54.471C44.8386 54.4359 45.5809 54.1382 46.1661 53.6269C46.7005 53.1375 47.0987 52.5184 47.3216 51.83C47.5446 51.1415 47.5848 50.4073 47.4383 49.6987C47.114 48.1534 45.9602 46.875 44.6076 46.1145C42.7671 45.0797 40.5691 44.9806 38.5097 45.1336L38.7776 45.2442C36.4481 42.752 32.8799 41.6997 29.5301 42.068C25.9931 42.4568 22.8474 44.4236 20.5872 47.1131C18.0672 50.1118 16.6939 53.8508 16.16 57.6957C15.8822 59.7715 15.7908 61.868 15.8867 63.96C15.8828 64.8827 16.0411 65.7989 16.3546 66.667C16.7123 67.5119 17.3589 68.203 18.1796 68.6174C19.1205 69.0701 20.0879 69.4662 21.0764 69.8035L24.3591 71.0736L30.8075 73.5685L32.4489 74.2035C32.9038 74.3795 33.1008 73.6494 32.6503 73.4751Z" fill="white"/>
<path d="M18.6403 47.806C17.866 47.806 17.109 47.5771 16.4651 47.1483C15.8213 46.7194 15.3195 46.1099 15.0231 45.3968C14.7268 44.6837 14.6493 43.899 14.8003 43.1419C14.9514 42.3849 15.3243 41.6895 15.8718 41.1437C16.4194 40.5979 17.117 40.2262 17.8765 40.0756C18.636 39.925 19.4232 40.0023 20.1386 40.2977C20.854 40.5931 21.4655 41.0933 21.8957 41.7351C22.3259 42.3769 22.5556 43.1314 22.5556 43.9033C22.5544 44.938 22.1415 45.93 21.4075 46.6616C20.6735 47.3933 19.6784 47.8048 18.6403 47.806ZM18.6403 40.756C18.0158 40.756 17.4054 40.9406 16.8861 41.2864C16.3669 41.6322 15.9622 42.1238 15.7232 42.6989C15.4843 43.274 15.4217 43.9068 15.5436 44.5173C15.6654 45.1278 15.9661 45.6886 16.4077 46.1288C16.8493 46.569 17.4119 46.8687 18.0243 46.9902C18.6368 47.1116 19.2717 47.0493 19.8486 46.8111C20.4256 46.5728 20.9187 46.1694 21.2656 45.6519C21.6126 45.1343 21.7978 44.5258 21.7978 43.9033C21.7968 43.0689 21.4639 42.2689 20.8719 41.6788C20.28 41.0888 19.4774 40.7569 18.6403 40.756Z" fill="#2F2E41"/>
<path d="M84.0888 71.9914L75.6145 65.5308L69.1331 73.9779L77.6074 80.4385L84.0888 71.9914Z" fill="#F0F0F0"/>
<path d="M36.1959 14.3184C37.5349 14.3174 38.8555 14.6289 40.0519 15.228C41.2484 15.8271 42.2875 16.6971 43.0861 17.7684L48.0344 11.3193L33.1871 0L21.8315 14.7997L28.2307 19.6783C28.871 18.0952 29.9715 16.739 31.3909 15.784C32.8102 14.8289 34.4835 14.3186 36.1959 14.3184Z" fill="#F0F0F0"/>
<path d="M178.585 139.96H0.252595C0.185603 139.96 0.121354 139.933 0.0739833 139.886C0.0266125 139.839 0 139.775 0 139.708C0 139.641 0.0266125 139.577 0.0739833 139.53C0.121354 139.483 0.185603 139.456 0.252595 139.456H178.585C178.652 139.456 178.716 139.483 178.763 139.53C178.811 139.577 178.837 139.641 178.837 139.708C178.837 139.775 178.811 139.839 178.763 139.886C178.716 139.933 178.652 139.96 178.585 139.96Z" fill="#3F3D56"/>
<path d="M135.059 98.1807H116.907C116.238 98.18 115.596 97.9145 115.122 97.4424C114.648 96.9704 114.382 96.3304 114.381 95.6629V94.4096C114.382 93.742 114.648 93.1021 115.122 92.63C115.596 92.158 116.238 91.8925 116.907 91.8917H135.059C135.729 91.8925 136.371 92.158 136.845 92.63C137.318 93.1021 137.585 93.742 137.585 94.4096V95.6629C137.585 96.3304 137.318 96.9704 136.845 97.4424C136.371 97.9145 135.729 98.18 135.059 98.1807Z" fill="#F50000"/>
<path d="M136.972 95.7646H118.82C118.117 95.7638 117.443 95.485 116.945 94.9894C116.448 94.4938 116.169 93.8218 116.168 93.1208V91.8676C116.169 91.1666 116.448 90.4947 116.945 89.999C117.443 89.5034 118.117 89.2246 118.82 89.2238H136.972C137.675 89.2246 138.349 89.5034 138.847 89.999C139.344 90.4947 139.624 91.1666 139.624 91.8676V93.1208C139.624 93.8218 139.344 94.4938 138.847 94.9894C138.349 95.485 137.675 95.7638 136.972 95.7646ZM118.82 89.7274C118.251 89.728 117.705 89.9537 117.302 90.3549C116.9 90.7562 116.674 91.3002 116.673 91.8676V93.1208C116.674 93.6883 116.9 94.2323 117.302 94.6335C117.705 95.0347 118.251 95.2604 118.82 95.261H136.972C137.541 95.2604 138.087 95.0347 138.49 94.6335C138.892 94.2323 139.118 93.6883 139.119 93.1208V91.8676C139.118 91.3002 138.892 90.7562 138.49 90.3549C138.087 89.9537 137.541 89.728 136.972 89.7274H118.82Z" fill="#3F3D56"/>
</g>
<defs>
<clipPath id="clip0_3_79">
<rect width="178.837" height="139.96" fill="white"/>
</clipPath>
</defs>
</svg>
